<svg xmlns="http://www.w3.org/2000/svg" xmlns:xlink="http://www.w3.org/1999/xlink" width="240" height="240" viewBox="0 0 240 240">
  <defs>
    <clipPath id="clip-c-sharp-logo">
      <rect width="240" height="240"/>
    </clipPath>
  </defs>
  <g id="c-sharp-logo" clip-path="url(#clip-c-sharp-logo)">
    <rect id="Rectangle_1" data-name="Rectangle 1" width="240" height="240" rx="9" fill="none"/>
    <g id="c--4" transform="translate(-175.299 -139.385)">
      <path id="Tracé_18" data-name="Tracé 18" d="M385.672,217.445a17.627,17.627,0,0,0-2.227-9.021,17.022,17.022,0,0,0-6.515-6.348q-36.083-20.8-72.221-41.6c-6.515-3.731-12.752-3.619-19.211.167-9.578,5.624-57.576,33.131-71.831,41.428-5.9,3.4-8.742,8.631-8.742,15.424v83.747a18.259,18.259,0,0,0,2.116,8.854,17.46,17.46,0,0,0,6.626,6.571c14.311,8.3,62.254,35.749,71.831,41.428,6.459,3.786,12.751,3.953,19.211.167q36.083-20.881,72.221-41.6a16.711,16.711,0,0,0,6.626-6.571,18.259,18.259,0,0,0,2.116-8.854Z" transform="translate(0 0)" fill="#9a4993"/>
      <path id="Tracé_19" data-name="Tracé 19" d="M301.919,582.333l-88.592,51.006a17.462,17.462,0,0,0,6.626,6.571c14.311,8.3,62.254,35.748,71.831,41.428,6.459,3.787,12.751,3.954,19.211.167q36.083-20.881,72.221-41.6a16.711,16.711,0,0,0,6.626-6.571Z" transform="translate(-6.398 -323.292)" fill="#6a1577"/>
      <path id="Tracé_20" data-name="Tracé 20" d="M474.735,597.423a29.87,29.87,0,0,0,52.008-.167l-25.781-14.923Z" transform="translate(-205.44 -323.292)" fill="#6a1577"/>
      <path id="Tracé_21" data-name="Tracé 21" d="M674.818,379.193a17.63,17.63,0,0,0-2.227-9.021l-87.924,50.616L672.7,471.794a18.259,18.259,0,0,0,2.116-8.854Z" transform="translate(-289.145 -161.747)" fill="#813084"/>
      <g id="Groupe_6" data-name="Groupe 6" transform="translate(235.161 199.293)">
        <path id="Tracé_22" data-name="Tracé 22" d="M417.8,406.566a29.93,29.93,0,1,1-.223-29.623L443.7,361.908a59.972,59.972,0,1,0,.223,59.748Zm33.02-28.844h-5.958V406.51h5.958Zm13.2,0h-5.958V406.51h5.958Z" transform="translate(-331.662 -331.895)" fill="#fff"/>
        <path id="Tracé_23" data-name="Tracé 23" d="M814.879,544.289H786.091v5.958h28.788Zm0,13.141H786.091v5.958h28.788Z" transform="translate(-677.676 -493.617)" fill="#fff"/>
      </g>
    </g>
  </g>
</svg>
