<svg xmlns="http://www.w3.org/2000/svg" xmlns:xlink="http://www.w3.org/1999/xlink" width="240" height="240" viewBox="0 0 240 240">
  <defs>
    <clipPath id="clip-git-logo">
      <rect width="240" height="240"/>
    </clipPath>
  </defs>
  <g id="git-logo" clip-path="url(#clip-git-logo)">
    <rect id="Rectangle_1" data-name="Rectangle 1" width="240" height="240" rx="9" transform="translate(26 67)" fill="none"/>
    <g id="g10" transform="translate(18.514 141.03)">
      <g id="g12" transform="translate(-0.001 -122.514)">
        <path id="path14" d="M199.143-30.07l-88.62-88.616a13.073,13.073,0,0,0-18.487,0l-18.4,18.4L96.979-76.939a15.52,15.52,0,0,1,15.97,3.721,15.532,15.532,0,0,1,3.689,16.07l22.5,22.5a15.525,15.525,0,0,1,16.071,3.691,15.552,15.552,0,0,1,0,22,15.555,15.555,0,0,1-22,0,15.558,15.558,0,0,1-3.382-16.916L108.837-46.864V8.352A15.53,15.53,0,1,1,96.049,7.9V-47.828a15.416,15.416,0,0,1-5.1-3.394,15.551,15.551,0,0,1-3.348-17L64.594-91.242,3.827-30.48a13.079,13.079,0,0,0,0,18.491L92.451,76.627a13.074,13.074,0,0,0,18.487,0l88.205-88.206a13.076,13.076,0,0,0,0-18.491" transform="translate(0.001 122.514)" fill="#f03c2e"/>
      </g>
    </g>
  </g>
</svg>
