<svg xmlns="http://www.w3.org/2000/svg" xmlns:xlink="http://www.w3.org/1999/xlink" width="240" height="240" viewBox="0 0 240 240">
  <defs>
    <clipPath id="clip-github-logo">
      <rect width="240" height="240"/>
    </clipPath>
  </defs>
  <g id="github-logo" clip-path="url(#clip-github-logo)">
    <rect id="Rectangle_1" data-name="Rectangle 1" width="240" height="240" rx="9" transform="translate(26 67)" fill="none"/>
    <g id="github-icon-1" transform="translate(15 17.592)">
      <path id="Tracé_3532" data-name="Tracé 3532" d="M105,0A105.012,105.012,0,0,0,71.806,204.636c5.247.972,7.174-2.278,7.174-5.051,0-2.5-.1-10.776-.142-19.549-29.212,6.352-35.376-12.389-35.376-12.389C38.686,155.51,31.8,152.283,31.8,152.283c-9.526-6.517.718-6.384.718-6.384,10.544.741,16.1,10.821,16.1,10.821,9.365,16.052,24.563,11.411,30.555,8.729.942-6.787,3.664-11.419,6.666-14.041C62.518,148.753,38,139.75,38,99.517A40.634,40.634,0,0,1,48.82,71.333c-1.09-2.645-4.684-13.324,1.017-27.787,0,0,8.817-2.822,28.883,10.763a99.607,99.607,0,0,1,52.585,0c20.042-13.585,28.846-10.763,28.846-10.763,5.715,14.463,2.12,25.142,1.029,27.787a40.556,40.556,0,0,1,10.806,28.183c0,40.328-24.563,49.209-47.944,51.808,3.766,3.259,7.122,9.649,7.122,19.444,0,14.049-.122,25.356-.122,28.815,0,2.794,1.89,6.068,7.213,5.037A105.016,105.016,0,0,0,105,0" fill="#161614"/>
      <path id="Tracé_3533" data-name="Tracé 3533" d="M47.152,181.252c-.231.521-1.052.678-1.8.32s-1.19-1.054-.943-1.578c.226-.537,1.048-.687,1.808-.326.763.342,1.2,1.06.934,1.584m5.165,4.608c-.5.464-1.48.249-2.144-.485a1.6,1.6,0,0,1-.307-2.182c.516-.464,1.466-.247,2.154.486s.82,1.713.3,2.182m3.544,5.9c-.644.447-1.7.028-2.346-.906s-.643-2.053.014-2.5,1.688-.045,2.347.881c.642.949.642,2.069-.016,2.527m5.993,6.828c-.576.634-1.8.464-2.7-.4-.917-.847-1.173-2.048-.6-2.683s1.815-.457,2.719.4,1.19,2.055.576,2.683m7.743,2.306c-.253.822-1.434,1.2-2.623.847s-1.965-1.323-1.725-2.154,1.433-1.217,2.631-.843c1.186.358,1.965,1.314,1.718,2.151m8.814.977c.03.866-.979,1.584-2.228,1.6s-2.271-.674-2.284-1.525c0-.875.986-1.586,2.241-1.607s2.271.671,2.271,1.532m8.658-.332c.15.845-.718,1.713-1.957,1.943-1.219.222-2.347-.3-2.5-1.136-.152-.866.733-1.733,1.949-1.958,1.242-.216,2.353.292,2.511,1.151" transform="translate(-7.826 -31.677)" fill="#161614"/>
    </g>
  </g>
</svg>
