<svg xmlns="http://www.w3.org/2000/svg" xmlns:xlink="http://www.w3.org/1999/xlink" width="240" height="240" viewBox="0 0 240 240">
  <defs>
    <clipPath id="clip-js-logo">
      <rect width="240" height="240"/>
    </clipPath>
  </defs>
  <g id="js-logo" clip-path="url(#clip-js-logo)">
    <rect id="Rectangle_1" data-name="Rectangle 1" width="240" height="240" rx="9" fill="none"/>
    <g id="javascript" transform="translate(20 20)">
      <path id="Tracé_24" data-name="Tracé 24" d="M0,0H200V200H0Z" fill="#f7df1e"/>
      <path id="Tracé_25" data-name="Tracé 25" d="M67.312,192.543l15.3-9.263c2.953,5.235,5.639,9.665,12.082,9.665,6.176,0,10.07-2.416,10.07-11.812v-63.9h18.795V181.4c0,19.466-11.411,28.327-28.059,28.327-15.035,0-23.763-7.787-28.193-17.184m66.461-2.013,15.3-8.86c4.029,6.579,9.265,11.412,18.527,11.412,7.788,0,12.754-3.894,12.754-9.264,0-6.444-5.1-8.727-13.694-12.484l-4.7-2.016C148.4,163.545,139.41,156.3,139.41,140.99c0-14.1,10.74-24.838,27.522-24.838,11.948,0,20.541,4.163,26.716,15.037l-14.634,9.4c-3.223-5.773-6.712-8.055-12.082-8.055-5.5,0-9,3.491-9,8.055,0,5.638,3.491,7.922,11.545,11.413l4.7,2.013c15.977,6.848,24.971,13.828,24.971,29.534,0,16.917-13.291,26.18-31.146,26.18-17.452,0-28.73-8.323-34.234-19.2" transform="translate(-14.724 -25.408)"/>
    </g>
  </g>
</svg>
