<svg xmlns="http://www.w3.org/2000/svg" xmlns:xlink="http://www.w3.org/1999/xlink" width="240" height="240" viewBox="0 0 240 240">
  <defs>
    <linearGradient id="linear-gradient" x1="0.485" y1="1.153" x2="0.51" y2="0.414" gradientUnits="objectBoundingBox">
      <stop offset="0" stop-color="#ffeed7"/>
      <stop offset="1" stop-color="#bdbfc2"/>
    </linearGradient>
    <linearGradient id="linear-gradient-2" x1="0.544" y1="0.024" x2="0.462" y2="0.905" gradientUnits="objectBoundingBox">
      <stop offset="0" stop-color="#fff" stop-opacity="0.8"/>
      <stop offset="1" stop-color="#fff" stop-opacity="0"/>
    </linearGradient>
    <linearGradient id="linear-gradient-3" x1="0.519" y1="0.882" x2="0.479" y2="0.097" xlink:href="#linear-gradient"/>
    <linearGradient id="linear-gradient-4" x1="0.499" y1="0.855" x2="0.499" y2="0.138" xlink:href="#linear-gradient"/>
    <linearGradient id="linear-gradient-5" x1="0.539" y1="0.031" x2="0.46" y2="0.939" gradientUnits="objectBoundingBox">
      <stop offset="0" stop-color="#fff" stop-opacity="0.651"/>
      <stop offset="1" stop-color="#fff" stop-opacity="0"/>
    </linearGradient>
    <linearGradient id="linear-gradient-6" x1="0.456" y1="0.055" x2="0.548" y2="0.935" xlink:href="#linear-gradient-5"/>
    <linearGradient id="linear-gradient-7" x1="0.5" y1="0.898" x2="0.5" y2="0.406" xlink:href="#linear-gradient"/>
    <linearGradient id="linear-gradient-8" x1="0.535" y1="1" x2="0.427" y2="0.235" xlink:href="#linear-gradient"/>
    <linearGradient id="linear-gradient-9" x1="0.498" y1="0.132" x2="0.502" y2="0.947" xlink:href="#linear-gradient-2"/>
    <linearGradient id="linear-gradient-10" x1="0.499" y1="0.373" x2="0.507" y2="0.928" xlink:href="#linear-gradient-5"/>
    <linearGradient id="linear-gradient-11" x1="0.499" y1="0.023" x2="0.499" y2="0.812" xlink:href="#linear-gradient-5"/>
    <linearGradient id="linear-gradient-12" x1="0.498" y1="0.023" x2="0.498" y2="0.718" xlink:href="#linear-gradient-5"/>
    <linearGradient id="linear-gradient-13" x1="0.535" y1="0.489" x2="0.389" y2="0.981" gradientUnits="objectBoundingBox">
      <stop offset="0" stop-color="#ffa63f"/>
      <stop offset="1" stop-color="#ff0"/>
    </linearGradient>
    <linearGradient id="linear-gradient-14" x1="0.524" y1="1.43" x2="0.476" y2="-0.646" xlink:href="#linear-gradient"/>
    <linearGradient id="linear-gradient-15" x1="0.306" y1="0.34" x2="0.659" y2="0.892" xlink:href="#linear-gradient-13"/>
    <linearGradient id="linear-gradient-16" x1="0.596" y1="-0.172" x2="0.484" y2="0.661" xlink:href="#linear-gradient-5"/>
    <linearGradient id="linear-gradient-17" x1="0.478" y1="0.016" x2="0.514" y2="1.043" xlink:href="#linear-gradient-5"/>
    <linearGradient id="linear-gradient-18" x1="0.435" y1="0.045" x2="0.571" y2="0.928" xlink:href="#linear-gradient-5"/>
    <linearGradient id="linear-gradient-19" x1="0.497" y1="0.176" x2="0.506" y2="0.994" xlink:href="#linear-gradient-13"/>
    <linearGradient id="linear-gradient-20" x1="0.502" y1="0.029" x2="0.497" y2="0.942" xlink:href="#linear-gradient-5"/>
    <clipPath id="clip-linux-logo">
      <rect width="240" height="240"/>
    </clipPath>
  </defs>
  <g id="linux-logo" clip-path="url(#clip-linux-logo)">
    <rect id="Rectangle_1" data-name="Rectangle 1" width="240" height="240" rx="9" fill="none"/>
    <g id="tux" transform="translate(24.078 16.872)">
      <path id="Tracé_3492" data-name="Tracé 3492" d="M171.8,240.874c0,12.68-38.443,23.012-85.877,23.012S.044,253.621.044,240.874c0-12.681,38.444-23.013,85.877-23.013S171.733,228.193,171.8,240.874Z" transform="translate(10 -58.463)" fill="rgba(0,0,0,0.2)"/>
      <path id="Tracé_3493" data-name="Tracé 3493" d="M61.047,157.654c-8.32-11.943-9.93-50.856,9.459-74.809C80.1,71.374,82.584,63.39,83.321,52.588,83.858,40.31,74.666,3.745,109.286.994c35.09-2.818,33.144,31.8,32.942,50.118-.134,15.431,11.339,24.22,19.256,36.3,14.559,22.14,13.351,60.248-2.751,80.913-20.4,25.83-37.84,14.626-49.447,15.565C87.548,185.162,86.81,196.7,61.047,157.654Z" transform="translate(-12.156)"/>
      <path id="Tracé_3494" data-name="Tracé 3494" d="M167.049,121.548c6.039,5.569,21.671,30.46-3.086,46.026-8.721,5.434,7.783,26.1,15.7,16.1,14.023-17.981,5.1-46.7-3.354-56.962-5.636-7.246-14.357-10.064-9.258-5.166Z" transform="translate(-33.489 -31.858)" fill="url(#linear-gradient)"/>
      <path id="Tracé_3495" data-name="Tracé 3495" d="M174.518,111.761c9.929,8.051,27.977,36.229,1.61,54.613-8.655,5.7,7.648,23.751,16.84,14.559,31.868-32.07-.805-68.9-12.077-81.584C170.827,88.279,161.9,101.9,174.518,111.761Z" transform="translate(-42.634 -25.426)" stroke="#000" stroke-width="0.977"/>
      <path id="Tracé_3496" data-name="Tracé 3496" d="M131.039,19.314c-.335,9.192-10.466,17.177-22.61,17.915S86.759,30.99,87.094,21.8,97.561,4.621,109.7,3.883C121.847,3.213,131.375,10.123,131.039,19.314Z" transform="translate(-13.447 -0.81)" fill="url(#linear-gradient-2)"/>
      <path id="Tracé_3497" data-name="Tracé 3497" d="M102.3,51.121c.336,5.971-2.482,11-6.373,11.2s-7.314-4.428-7.649-10.4,2.483-11,6.374-11.2S101.969,45.149,102.3,51.121Z" transform="translate(-13.762 -10.744)" fill="url(#linear-gradient-3)"/>
      <path id="Tracé_3498" data-name="Tracé 3498" d="M117.122,50.875c.134,6.91,4.63,12.412,10,12.278s9.594-5.838,9.46-12.815c-.134-6.91-4.629-12.412-10-12.277S116.922,43.964,117.122,50.875Z" transform="translate(-21.536 -10.028)" fill="url(#linear-gradient-4)"/>
      <path id="Tracé_3499" data-name="Tracé 3499" d="M125.1,55.189c-.067,3.824,1.812,6.91,4.294,6.91,2.415,0,4.5-3.086,4.563-6.843.066-3.824-1.812-6.911-4.295-6.911S125.168,51.432,125.1,55.189Zm-15.5.067c.335,3.153-.872,5.837-2.617,6.105-1.744.2-3.422-2.147-3.757-5.3s.872-5.838,2.616-6.106c1.745-.2,3.422,2.147,3.758,5.3Z" transform="translate(-25.087 -12.799)"/>
      <path id="Tracé_3500" data-name="Tracé 3500" d="M124.555,53.434c-.2,2.147.805,3.891,2.214,4.026s2.751-1.543,2.952-3.623c.2-2.147-.805-3.891-2.214-4.026s-2.751,1.544-2.952,3.624Z" transform="translate(-23.533 -13.192)" fill="url(#linear-gradient-5)"/>
      <path id="Tracé_3501" data-name="Tracé 3501" d="M98.506,54.392c.2,1.745-.536,3.288-1.61,3.422s-2.08-1.208-2.282-3.019c-.2-1.745.537-3.288,1.61-3.422S98.305,52.647,98.506,54.392Z" transform="translate(-15.466 -13.612)" fill="url(#linear-gradient-6)"/>
      <path id="Tracé_3502" data-name="Tracé 3502" d="M69.07,125.489c4.764-10.8,14.894-29.789,15.1-44.483,0-11.674,34.955-14.492,37.773-2.817s9.929,29.118,14.491,37.572c4.563,8.386,17.78,35.156,3.69,58.5C127.44,194.93,89,211.3,68.466,171.448c-6.977-13.821-5.7-30.929.6-45.958Z" transform="translate(-7.164 -18.825)" fill="url(#linear-gradient-7)"/>
      <path id="Tracé_3503" data-name="Tracé 3503" d="M60.872,131.687c-4.092,7.715-12.546,27.978,8.119,39.048,22.207,11.808,22.14,36.028-4.563,24.488-24.421-10.4-13.62-52.533-6.776-62.6,4.428-7.045,11.137-15.7,3.22-.94Z" transform="translate(-3.26 -33.074)" fill="url(#linear-gradient-8)"/>
      <path id="Tracé_3504" data-name="Tracé 3504" d="M71.316,114.769c-6.508,10.6-22.073,35.559-1.207,48.575,28.044,17.243,20.127,34.418-5.5,18.919-36.1-21.6-4.362-65.213,10.064-81.852,16.5-18.652,3.153,3.422-3.355,14.357Z" transform="translate(-10.215 -24.877)" stroke="#000" stroke-width="1.25"/>
      <path id="Tracé_3505" data-name="Tracé 3505" d="M134.536,143.394c0,11.808-11.339,27.106-30.8,26.972C83.681,170.5,75.16,155.2,75.16,143.394s13.284-21.4,29.655-21.4c16.438.067,29.722,9.595,29.722,21.4Z" transform="translate(-10.235 -32.638)" fill="url(#linear-gradient-9)"/>
      <path id="Tracé_3506" data-name="Tracé 3506" d="M128.463,95.656c-.2,12.211-8.186,15.1-18.25,15.1s-17.377-1.812-18.25-15.1c0-8.32,8.185-13.15,18.25-13.15,10.064-.067,18.249,4.764,18.249,13.15Z" transform="translate(-14.761 -22.001)" fill="url(#linear-gradient-10)"/>
      <path id="Tracé_3507" data-name="Tracé 3507" d="M54.347,121.276c6.576-10,20.463-25.361,2.617,2.147-14.492,22.677-5.367,37.236-.671,41.261,13.552,12.077,13.015,20.194,2.348,13.821-22.879-13.62-18.115-36.565-4.295-57.23Z" transform="translate(-1.499 -28.835)" fill="url(#linear-gradient-11)"/>
      <path id="Tracé_3508" data-name="Tracé 3508" d="M184.6,123.29c-5.7-11.741-23.818-41.53.872-6.911,22.476,31.332,6.709,53.137,3.891,55.284s-12.277,6.508-9.527-1.073c2.819-7.582,16.774-21.939,4.764-47.3Z" transform="translate(-36.546 -26.757)" fill="url(#linear-gradient-12)"/>
      <path id="Tracé_3509" data-name="Tracé 3509" d="M40.554,238.044c-15.029-7.984-36.834,1.543-28.917-20.061,1.61-4.9-2.348-12.278.2-17.042,3.02-5.837,9.527-4.562,13.419-8.453,3.824-4.026,6.24-11,13.419-9.929,7.112,1.073,11.876,9.795,16.84,20.53,3.69,7.648,16.706,18.45,15.834,27.038-1.074,13.15-16.036,15.632-30.8,7.917Z" transform="translate(7.33 -48.923)" stroke="#e68c3f" stroke-width="6.25" fill="url(#linear-gradient-13)"/>
      <path id="Tracé_3510" data-name="Tracé 3510" d="M191.8,182.929c-2.281,4.294-11.808,11.2-18.182,9.393-6.44-1.745-9.393-11.54-8.118-18.987,1.208-8.319,8.118-8.789,16.841-4.629C191.737,173.335,194.555,177.226,191.8,182.929Z" transform="translate(-34.493 -44.531)" fill="url(#linear-gradient-14)"/>
      <path id="Tracé_3511" data-name="Tracé 3511" d="M182.3,233.918c11-13.351,35.492-10.6,18.987-28.916-3.489-3.959-2.415-12.413-6.709-16.035-5.032-4.428-10.6-.805-15.7-3.086-5.1-2.483-10.466-7.246-16.706-3.892-6.24,3.422-6.911,12.278-7.514,23.952-.537,8.387-8.185,22.409-4.093,30.124,5.9,11.943,21.268,10.332,31.735-2.147Z" transform="translate(-30.225 -48.488)" stroke="#e68c3f" stroke-width="6.251" fill="url(#linear-gradient-15)"/>
      <path id="Tracé_3512" data-name="Tracé 3512" d="M179.533,217.61c17.042-25.159,4.362-24.958.067-26.9-4.294-2.013-8.789-5.971-13.82-3.221-5.033,2.818-5.3,10.064-5.435,19.591-.2,6.844-5.9,18.317-2.482,24.69C162.022,239.214,172.086,228.413,179.533,217.61Z" transform="translate(-32.219 -50.027)" fill="url(#linear-gradient-16)"/>
      <path id="Tracé_3513" data-name="Tracé 3513" d="M41.207,221.492c-25.5-16.5-13.553-22.14-9.728-24.757,4.629-3.354,4.7-9.8,10.4-9.191s9.058,7.648,12.882,16.37c2.818,6.24,12.613,14.559,11.876,21.738-.939,8.453-14.425,2.884-25.428-4.16Z" transform="translate(3.188 -50.285)" fill="url(#linear-gradient-17)"/>
      <path id="Tracé_3514" data-name="Tracé 3514" d="M201.153,183.895c-2.013,3.489-10.2,8.991-15.632,7.514-5.569-1.409-8.119-9.258-6.977-15.163,1.006-6.709,6.977-7.045,14.491-3.69C201.019,176.179,203.5,179.266,201.153,183.895Z" transform="translate(-45.318 -45.698)"/>
      <path id="Tracé_3515" data-name="Tracé 3515" d="M186.327,182.746c-1.275,2.415-6.642,6.24-10.4,5.233s-5.635-6.44-5.032-10.533c.537-4.629,4.562-4.9,9.661-2.616C186.059,177.379,187.8,179.526,186.327,182.746Z" transform="translate(-35.994 -46.494)" fill="url(#linear-gradient-18)"/>
      <path id="Tracé_3516" data-name="Tracé 3516" d="M94.349,64.256c2.684-2.483,9.191-10.064,21.537-2.147,2.281,1.476,4.159,1.61,8.521,3.489,8.789,3.624,4.629,12.345-4.764,15.3-4.026,1.275-7.648,6.173-14.894,5.7-6.24-.336-7.85-4.428-11.674-6.642-6.777-3.824-7.783-8.99-4.093-11.741S94.081,64.457,94.349,64.256Z" transform="translate(-13.388 -15.56)" stroke="#e68c3f" stroke-width="3.75" fill="url(#linear-gradient-19)"/>
      <path id="Tracé_3517" data-name="Tracé 3517" d="M135.617,75.986c-3.69.2-11.675,8.185-20.061,8.185s-13.419-7.783-14.693-7.783" transform="translate(-24.465 -20.245)" fill="none" stroke="#e68c3f" stroke-width="2.5"/>
      <path id="Tracé_3518" data-name="Tracé 3518" d="M101.464,64.465A8.923,8.923,0,0,1,112.6,63.324c1.208.671,2.415,1.409,4.159,2.415,3.556,2.08,1.812,5.1-2.483,6.977-1.946.805-5.166,2.55-7.581,2.415-2.684-.268-4.5-2.013-6.24-3.153-3.288-2.147-3.086-3.959-1.543-5.367a26.9,26.9,0,0,1,2.55-2.147Z" transform="translate(-16.344 -16.439)" fill="url(#linear-gradient-20)"/>
    </g>
  </g>
</svg>
