<svg xmlns="http://www.w3.org/2000/svg" xmlns:xlink="http://www.w3.org/1999/xlink" width="240" height="240" viewBox="0 0 240 240">
  <defs>
    <linearGradient id="linear-gradient" x1="0.5" y1="-0.195" x2="0.5" y2="1.296" gradientUnits="objectBoundingBox">
      <stop offset="0" stop-color="#0994dc"/>
      <stop offset="0.35" stop-color="#66cef5"/>
      <stop offset="0.846" stop-color="#127bca"/>
      <stop offset="1" stop-color="#127bca"/>
    </linearGradient>
    <linearGradient id="linear-gradient-2" x1="0.5" y1="-0.195" x2="0.5" y2="1.296" gradientUnits="objectBoundingBox">
      <stop offset="0" stop-color="#0e76bc"/>
      <stop offset="0.36" stop-color="#36aee8"/>
      <stop offset="0.846" stop-color="#00adef"/>
      <stop offset="1" stop-color="#00adef"/>
    </linearGradient>
    <linearGradient id="linear-gradient-3" x1="0.5" y1="1.109" x2="0.5" y2="-0.062" gradientUnits="objectBoundingBox">
      <stop offset="0" stop-color="#1c63b7"/>
      <stop offset="0.5" stop-color="#33bdf2"/>
      <stop offset="1" stop-color="#33bdf2" stop-opacity="0.42"/>
    </linearGradient>
    <linearGradient id="linear-gradient-4" x1="0.5" y1="-0.195" x2="0.5" y2="1.296" gradientUnits="objectBoundingBox">
      <stop offset="0" stop-color="#166ab8"/>
      <stop offset="0.4" stop-color="#36aee8"/>
      <stop offset="0.846" stop-color="#0798dd"/>
      <stop offset="1" stop-color="#0798dd"/>
    </linearGradient>
    <linearGradient id="linear-gradient-5" x1="0.5" y1="-0.195" x2="0.5" y2="1.296" gradientUnits="objectBoundingBox">
      <stop offset="0" stop-color="#124379"/>
      <stop offset="0.39" stop-color="#1487cb"/>
      <stop offset="0.78" stop-color="#165197"/>
      <stop offset="1" stop-color="#165197"/>
    </linearGradient>
    <linearGradient id="linear-gradient-6" y1="0.5" x2="1" y2="0.5" gradientUnits="objectBoundingBox">
      <stop offset="0" stop-color="#33bdf2" stop-opacity="0.698"/>
      <stop offset="1" stop-color="#1dacd8"/>
    </linearGradient>
    <linearGradient id="linear-gradient-7" x1="0.5" y1="0.947" x2="0.5" y2="-0.03" gradientUnits="objectBoundingBox">
      <stop offset="0" stop-color="#136ab4"/>
      <stop offset="0.6" stop-color="#59caf5" stop-opacity="0.549"/>
      <stop offset="1" stop-color="#59caf5" stop-opacity="0.235"/>
    </linearGradient>
    <linearGradient id="linear-gradient-8" y1="0.5" x2="1" y2="0.5" gradientUnits="objectBoundingBox">
      <stop offset="0" stop-color="#05a1e6" stop-opacity="0.247"/>
      <stop offset="1" stop-color="#05a1e6"/>
    </linearGradient>
    <linearGradient id="linear-gradient-9" x1="0.5" y1="1.243" x2="0.5" y2="-0.094" gradientUnits="objectBoundingBox">
      <stop offset="0" stop-color="#318ed5"/>
      <stop offset="1" stop-color="#38a7e4"/>
    </linearGradient>
    <linearGradient id="linear-gradient-10" x1="0.5" y1="0.912" x2="0.5" y2="-0.768" gradientUnits="objectBoundingBox">
      <stop offset="0" stop-color="#05a1e6"/>
      <stop offset="1" stop-color="#05a1e6" stop-opacity="0.549"/>
    </linearGradient>
    <linearGradient id="linear-gradient-11" x1="0.5" y1="1" x2="0.5" gradientUnits="objectBoundingBox">
      <stop offset="0" stop-color="#1959a6"/>
      <stop offset="0.5" stop-color="#05a1e6"/>
      <stop offset="0.918" stop-color="#7ec5ea"/>
      <stop offset="1" stop-color="#7ec5ea"/>
    </linearGradient>
    <linearGradient id="linear-gradient-12" x1="0.598" y1="0.946" x2="0.385" y2="0.058" gradientUnits="objectBoundingBox">
      <stop offset="0" stop-color="#165096"/>
      <stop offset="1" stop-color="#0d82ca"/>
    </linearGradient>
    <linearGradient id="linear-gradient-13" x1="0.5" y1="0.77" x2="0.5" y2="-0.033" gradientUnits="objectBoundingBox">
      <stop offset="0" stop-color="#05a1e6"/>
      <stop offset="0.874" stop-color="#0495d6"/>
      <stop offset="1" stop-color="#0495d6"/>
    </linearGradient>
    <linearGradient id="linear-gradient-14" x1="0.653" y1="-0.042" x2="0.343" y2="1.058" gradientUnits="objectBoundingBox">
      <stop offset="0" stop-color="#38a7e4" stop-opacity="0.329"/>
      <stop offset="0.962" stop-color="#0e88d3"/>
      <stop offset="1" stop-color="#0e88d3"/>
    </linearGradient>
    <linearGradient id="linear-gradient-15" x1="0.5" y1="-0.003" x2="0.5" y2="1.019" gradientUnits="objectBoundingBox">
      <stop offset="0" stop-color="#168cd4"/>
      <stop offset="0.5" stop-color="#1c87cc"/>
      <stop offset="1" stop-color="#154b8d"/>
    </linearGradient>
    <linearGradient id="linear-gradient-16" x1="0.167" y1="-1.056" x2="0.878" y2="1.198" gradientUnits="objectBoundingBox">
      <stop offset="0" stop-color="#97d6ee"/>
      <stop offset="0.703" stop-color="#55c1ea"/>
      <stop offset="1" stop-color="#55c1ea"/>
    </linearGradient>
    <linearGradient id="linear-gradient-17" x1="0.069" y1="0.937" x2="0.758" y2="-0.168" gradientUnits="objectBoundingBox">
      <stop offset="0" stop-color="#7accec"/>
      <stop offset="1" stop-color="#3fb7ed"/>
    </linearGradient>
    <linearGradient id="linear-gradient-18" x1="0.5" y1="0.064" x2="0.5" y2="1.28" gradientUnits="objectBoundingBox">
      <stop offset="0" stop-color="#1da7e7"/>
      <stop offset="1" stop-color="#37abe7" stop-opacity="0"/>
    </linearGradient>
    <clipPath id="clip-sql-logo">
      <rect width="240" height="240"/>
    </clipPath>
  </defs>
  <g id="sql-logo" clip-path="url(#clip-sql-logo)">
    <g id="net-seeklogo.com" transform="translate(3.1 74.082)">
      <g id="Groupe_12" data-name="Groupe 12" transform="translate(-205.619 -136.5)">
        <path id="Tracé_3551" data-name="Tracé 3551" d="M88.5,20.412c8.4,25.683,11.58,71.5,36.139,71.5h0a30.237,30.237,0,0,0,5.655-.544h0C107.969,86.161,105.323,40.844,91.7,17.376h0c-1.068.971-2.129,1.983-3.2,3.036" transform="translate(-7.561 -1.453)" fill="url(#linear-gradient)"/>
        <path id="Tracé_3552" data-name="Tracé 3552" d="M91.992,17.153c13.623,23.468,16.269,68.786,38.594,73.991h0a35.512,35.512,0,0,0,5.273-1.424h0C115.82,79.9,110.28,35.9,94.81,14.709h0q-1.405,1.17-2.818,2.444" transform="translate(-7.853 -1.23)" fill="url(#linear-gradient-2)"/>
        <path id="Tracé_3553" data-name="Tracé 3553" d="M111.516,2.145a30.337,30.337,0,0,0-5.659.544A43.329,43.329,0,0,0,90.751,9a37.5,37.5,0,0,1,3.957,4.655,54.258,54.258,0,0,1,15.441-9.377,34.4,34.4,0,0,1,5.76-1.6,17.743,17.743,0,0,0-4.392-.536" transform="translate(-7.75 -0.179)" fill="#14559a"/>
        <path id="Tracé_3554" data-name="Tracé 3554" d="M153.693,79.622q3.075-2.445,6.162-5.4c-8.533-25.563-11.588-72.035-36.319-72.035a29.282,29.282,0,0,0-5.333.495c22.528,5.6,25.413,54.615,35.491,76.94" transform="translate(-10.045 -0.183)" fill="url(#linear-gradient-3)"/>
        <path id="Tracé_3555" data-name="Tracé 3555" d="M117.8,2.68a17.761,17.761,0,0,0-4.392-.536l9.726.036a28.944,28.944,0,0,0-5.333.5" transform="translate(-9.644 -0.179)" fill="#3092c4"/>
        <path id="Tracé_3556" data-name="Tracé 3556" d="M155.072,92.338a36.641,36.641,0,0,1-2.789-3.013,51.152,51.152,0,0,1-12.424,6.633,19.142,19.142,0,0,0,4.632,1.578,19.636,19.636,0,0,0,3.946.39c4.621,0,8.275-.547,11.386-2.039a21.614,21.614,0,0,1-4.752-3.549" transform="translate(-11.856 -7.469)" fill="#1969bc"/>
        <path id="Tracé_3557" data-name="Tracé 3557" d="M111.917,4.334c20.177,10.553,21.931,58.344,38.031,77.75h0c1.079-.761,2.148-1.566,3.216-2.417h0C143.086,57.342,140.2,8.326,117.681,2.726h0a34.88,34.88,0,0,0-5.764,1.608" transform="translate(-9.519 -0.228)" fill="url(#linear-gradient-4)"/>
        <path id="Tracé_3558" data-name="Tracé 3558" d="M95.067,13.854c15.47,21.186,21.01,65.191,41.048,75.01h0a51.152,51.152,0,0,0,12.423-6.633h0c-16.1-19.406-17.854-67.2-38.031-77.75h0a54.145,54.145,0,0,0-15.441,9.373" transform="translate(-8.111 -0.375)" fill="url(#linear-gradient-5)"/>
        <path id="Tracé_3559" data-name="Tracé 3559" d="M76.978,19.444a230.671,230.671,0,0,0-7.9,22.1A164.358,164.358,0,0,1,86.875,20.063,64.513,64.513,0,0,0,84.248,13.2a88.685,88.685,0,0,0-7.271,6.24" transform="translate(-5.938 -1.104)" fill="url(#linear-gradient-6)"/>
        <path id="Tracé_3560" data-name="Tracé 3560" d="M87.783,11.479c-.712.51-1.428,1.031-2.147,1.582a64.614,64.614,0,0,1,2.623,6.858c1.072-1.049,2.136-2.065,3.2-3.036a42.489,42.489,0,0,0-3.676-5.4" transform="translate(-7.322 -0.96)" fill="#2b74b1"/>
        <path id="Tracé_3561" data-name="Tracé 3561" d="M90.519,9.629c-.847.536-1.69,1.1-2.541,1.694a42.7,42.7,0,0,1,3.68,5.408c.941-.851,1.881-1.671,2.818-2.447a37.5,37.5,0,0,0-3.958-4.655" transform="translate(-7.518 -0.805)" fill="#125a9e"/>
        <path id="Tracé_3562" data-name="Tracé 3562" d="M235.452.01C224.04,44.019,200.2,79.368,180.222,88.28h-.038c-.363.165-.723.315-1.079.461a.992.992,0,0,1-.132.051c-.1.042-.2.075-.307.117a.815.815,0,0,1-.138.057c-.169.06-.334.111-.5.177-.071.03-.138.048-.206.072a2.516,2.516,0,0,1-.247.081c-.075.03-.154.051-.24.084s-.147.042-.214.072c-.147.042-.28.078-.427.129a.806.806,0,0,0-.18.048c-.091.03-.192.051-.29.078a.876.876,0,0,1-.194.054c-.1.03-.214.057-.315.081-.135.03-.255.057-.382.084a8.138,8.138,0,0,0,2.86.5c18.948,0,38.053-33.958,69.666-90.428H235.447Z" transform="translate(-14.822 0)" fill="url(#linear-gradient-7)"/>
        <path id="Tracé_3563" data-name="Tracé 3563" d="M59.205,3.93c.012,0,.027-.03.034-.03a.039.039,0,0,0,.045-.03h.024c.1-.036.2-.078.307-.117a.056.056,0,0,0,.06-.03c.027,0,.053-.03.079-.033.112-.036.225-.078.33-.117H60.1c.251-.075.483-.168.727-.255.034,0,.068-.03.109-.03.1-.033.206-.069.311-.093a.612.612,0,0,1,.142-.045c.109-.033.214-.069.315-.093.045,0,.086-.03.12-.033.349-.1.693-.186,1.042-.27.049,0,.09-.03.142-.033a2,2,0,0,1,.3-.06.528.528,0,0,1,.15-.045c.1-.03.2-.033.307-.057h.071c.21-.042.424-.078.633-.117H64.6a2.669,2.669,0,0,1,.292-.051c.056,0,.112-.03.165-.03a2.16,2.16,0,0,0,.281-.042.3.3,0,0,0,.154-.03c.221-.03.45-.042.682-.06-.656-.063-1.33-.1-2.016-.1C42.822,2.125,13.421,41.719.177,93H2.729c4.239-7.559,8.046-14.709,11.528-21.422,9.276-36.319,28.168-61.087,44.95-67.65" transform="translate(-0.177 -0.178)" fill="url(#linear-gradient-8)"/>
        <path id="Tracé_3564" data-name="Tracé 3564" d="M77.7,19.139a88.626,88.626,0,0,1,7.271-6.24,34.344,34.344,0,0,0-1.732-3.347A41,41,0,0,0,77.7,19.139" transform="translate(-6.658 -0.799)" fill="#0d82ca"/>
        <path id="Tracé_3565" data-name="Tracé 3565" d="M79.587,4.409a18.2,18.2,0,0,1,3.785,4.7c.36-.442.723-.851,1.1-1.233a21.4,21.4,0,0,0-5.157-3.609,2.347,2.347,0,0,0,.228.108s.03.03.042.03" transform="translate(-6.794 -0.357)" fill="#0d82ca"/>
        <path id="Tracé_3566" data-name="Tracé 3566" d="M15.54,71.742C35,34.246,44.218,10.516,60.49,4.092h0c-16.778,6.566-35.674,31.335-44.95,67.65" transform="translate(-1.461 -0.342)" fill="url(#linear-gradient-9)"/>
        <path id="Tracé_3567" data-name="Tracé 3567" d="M84.842,8.208c-.378.386-.738.791-1.1,1.233a34.81,34.81,0,0,1,1.735,3.347c.72-.551,1.435-1.072,2.147-1.582a29.209,29.209,0,0,0-2.781-3" transform="translate(-7.163 -0.686)" fill="#127bca"/>
        <path id="Tracé_3568" data-name="Tracé 3568" d="M25.037,96.341h0a2.427,2.427,0,0,1-.352.042h-.068c-.1,0-.206.03-.3.03h-.049c-.243.029-.483.029-.716.048h-.075c19.694-.551,28.7-10.411,33.163-24.712,3.4-10.842,6.184-19.975,8.627-27.639A391.606,391.606,0,0,0,40.4,85.065C36.385,92.538,30.276,95.66,25.037,96.327" transform="translate(-2.125 -3.688)" fill="url(#linear-gradient-10)"/>
        <path id="Tracé_3569" data-name="Tracé 3569" d="M25.18,94.319h0c5.239-.667,11.348-3.786,15.366-11.262h0A393.28,393.28,0,0,1,65.407,42.1h0a230.116,230.116,0,0,1,7.9-22.1h0C56.881,35.641,40.391,61.639,25.18,94.311" transform="translate(-2.267 -1.673)" fill="url(#linear-gradient-11)"/>
        <path id="Tracé_3570" data-name="Tracé 3570" d="M14.487,77.916C11.006,84.628,7.2,91.779,2.96,99.337h7.424a181.461,181.461,0,0,1,4.1-21.418" transform="translate(-0.409 -6.515)" fill="#05a1e6"/>
        <path id="Tracé_3571" data-name="Tracé 3571" d="M66.406,2.324c-.06,0-.105.03-.157.03h0a1.289,1.289,0,0,1-.277.039h0a.327.327,0,0,0-.165.03h0a2.849,2.849,0,0,1-.292.051h0a.192.192,0,0,0-.127.03h0c-.214.036-.424.075-.633.111h-.071a2.487,2.487,0,0,1-.307.06h0a.525.525,0,0,1-.154.042h0a2.851,2.851,0,0,1-.3.06h0a.287.287,0,0,1-.142.033h0c-.348.084-.693.174-1.042.27h0c-.037,0-.075.03-.12.036h0c-.1.03-.206.06-.315.093h0a.434.434,0,0,1-.143.042h0c-.1.03-.21.06-.311.093h0c-.041,0-.075.03-.112.03h0c-.24.09-.476.18-.723.255h0c-.1.033-.217.075-.33.114h0a.7.7,0,0,1-.139.057h0c-.105.033-.21.075-.307.114h0a.515.515,0,0,1-.1.048h0c-16.272,6.424-25.492,30.154-44.95,67.65h0a180.64,180.64,0,0,0-4.1,21.418h1.042c2.934,0,3.763-.03,7.139-.03h3.272c.232-.029.472-.029.716-.049H23.3c.1,0,.2-.029.3-.029h.071c.108,0,.232-.029.352-.042h0c15.212-32.673,31.7-58.67,48.128-74.306h0a41.139,41.139,0,0,1,5.535-9.583h0A18.146,18.146,0,0,0,73.9,4.282h0s-.038,0-.041-.03h0c-.079-.033-.153-.072-.232-.111h0c-.079-.042-.146-.075-.228-.117h0a2.479,2.479,0,0,1-.225-.108h0a2.081,2.081,0,0,1-.262-.111h0c-.071-.03-.135-.06-.206-.09h0c-.146-.057-.292-.117-.431-.18h0c-.064-.03-.124-.045-.184-.069h0c-.1-.036-.217-.084-.322-.129h0A1.1,1.1,0,0,0,71.6,3.28h0c-.154-.051-.3-.1-.446-.153h-.037c-.172-.057-.341-.1-.517-.147h0a.219.219,0,0,0-.116-.036h0c-.154-.042-.289-.084-.435-.123h0c-.037,0-.071-.03-.1-.03h0c-.352-.093-.716-.168-1.083-.237h0c-.038,0-.075-.03-.112-.03h0c-.157-.03-.311-.057-.468-.075h0a.123.123,0,0,0-.094-.03h0c-.187-.03-.371-.051-.555-.072h-.1c-.15-.03-.288-.033-.427-.048h0c-.236.03-.461.042-.682.063" transform="translate(-1.088 -0.192)" fill="url(#linear-gradient-12)"/>
        <path id="Tracé_3572" data-name="Tracé 3572" d="M191.435,24.553c-3.743,11.993-6.776,21.887-9.414,30.027h0c10.273-14.136,20.391-31.919,30.027-52.441h0c-11.24,3.53-17.236,11.61-20.613,22.415" transform="translate(-15.381 -0.179)" fill="url(#linear-gradient-13)"/>
        <path id="Tracé_3573" data-name="Tracé 3573" d="M182.234,87.531c-.524.267-1.049.521-1.566.75C200.651,79.369,224.486,44.02,235.9.011h-2.313c-26.219,46.835-34.65,78.188-51.351,87.52" transform="translate(-15.268 -0.001)" fill="url(#linear-gradient-14)"/>
        <path id="Tracé_3574" data-name="Tracé 3574" d="M167.763,88.559c4.347-5.307,7.889-14.327,12.724-29.194A146.131,146.131,0,0,1,163.677,78.98c0,.03,0,.03-.029.048a51.155,51.155,0,0,0,4.1,9.53" transform="translate(-13.845 -4.964)" fill="#079ae1"/>
        <path id="Tracé_3575" data-name="Tracé 3575" d="M167.6,91.223a17.8,17.8,0,0,1-4.79,4.2c-.382.222-.768.431-1.161.622a16.84,16.84,0,0,0,6.1,1.922h0c.33.033.656.063,1,.087h.061a2.656,2.656,0,0,1,.479.03H170.9a.4.4,0,0,0,.183-.03,1.484,1.484,0,0,0,.359-.03h.178c.123,0,.258-.03.389-.042h.029c.039,0,.082-.03.12-.03.138-.03.282-.042.416-.063h.124c.152-.03.311-.048.468-.078h.074c.315-.06.622-.12.934-.2-2.579-.944-4.738-3.171-6.6-6.341" transform="translate(-13.677 -7.627)" fill="#1969bc"/>
        <path id="Tracé_3576" data-name="Tracé 3576" d="M127.936,98.532a29.961,29.961,0,0,0,5.656-.547,35.041,35.041,0,0,0,5.273-1.421,19.172,19.172,0,0,0,4.628,1.578,19.675,19.675,0,0,0,3.951.39Z" transform="translate(-10.859 -8.074)" fill="#1e5cb3"/>
        <path id="Tracé_3577" data-name="Tracé 3577" d="M149.222,98.525c4.618,0,8.275-.547,11.382-2.039a16.844,16.844,0,0,0,6.1,1.923h0c.33.033.656.063,1,.087h.06a2.664,2.664,0,0,1,.479.03H149.222Z" transform="translate(-12.637 -8.067)" fill="#1e5cb3"/>
        <path id="Tracé_3578" data-name="Tracé 3578" d="M170.6,98.666h1.069a.391.391,0,0,0,.183-.03,1.54,1.54,0,0,0,.364-.03h.177c.123,0,.257-.03.386-.042h.033c.039,0,.078-.03.117-.03.137-.03.281-.042.415-.063a.21.21,0,0,0,.129-.03c.153-.03.312-.045.469-.075h.074c.315-.06.622-.12.933-.2h0a8.147,8.147,0,0,0,2.86.5l-7.2.03Z" transform="translate(-14.426 -8.208)" fill="#1d60b5"/>
        <path id="Tracé_3579" data-name="Tracé 3579" d="M162.805,80.82v-.03q-3.086,2.951-6.161,5.4c-1.072.851-2.14,1.656-3.219,2.417a36.374,36.374,0,0,0,2.789,3.013,21.605,21.605,0,0,0,4.751,3.549c.39-.192.78-.4,1.158-.622a17.789,17.789,0,0,0,4.794-4.2,51.216,51.216,0,0,1-4.1-9.53" transform="translate(-12.99 -6.755)" fill="#175fab"/>
        <path id="Tracé_3580" data-name="Tracé 3580" d="M225.213.011H213.575c-.63.03-1.241.051-1.844.09h0c-.285.611-.577,1.222-.859,1.837h0c-9.635,20.522-19.754,38.305-30.026,52.441h0c-4.831,14.867-8.376,23.888-12.723,29.195h0c1.858,3.171,4.021,5.4,6.592,6.345h0a1.2,1.2,0,0,1,.2-.045h.042c.045,0,.093-.03.142-.03h0c.1-.03.217-.048.323-.081h0a1.6,1.6,0,0,1,.191-.054h0c.1-.03.2-.051.289-.075h0a.694.694,0,0,1,.18-.051h0c.15-.048.285-.084.428-.129h0a1.224,1.224,0,0,1,.214-.072h0c.082-.03.165-.051.24-.087h0c.086-.03.172-.045.247-.078h0c.067-.03.138-.048.2-.075h0c.169-.06.334-.111.5-.177h0c.046,0,.091-.042.139-.051h0c.1-.042.206-.075.307-.12h0a.384.384,0,0,1,.131-.048h0c.353-.147.716-.3,1.08-.461h.038c.518-.228,1.042-.484,1.563-.75h0c16.7-9.332,25.136-40.685,51.354-87.52H225.2Z" transform="translate(-14.219 -0.001)" fill="url(#linear-gradient-15)"/>
        <path id="Tracé_3581" data-name="Tracé 3581" d="M72.2,2.255a.181.181,0,0,1,.12.03.963.963,0,0,1,.3.033h.1c.184.03.367.045.555.072a.114.114,0,0,1,.094.03c.154.03.311.054.468.078.034,0,.079.03.116.03.36.072.727.147,1.079.24.033,0,.068.03.1.03.15.036.285.081.435.123.045,0,.079.03.12.036.176.045.341.09.513.147.007,0,.018,0,.038.03.146.045.3.1.45.153a.852.852,0,0,0,.172.057c.105.045.221.09.322.132a.655.655,0,0,1,.183.063c.138.063.285.12.427.18.075.03.139.063.21.09a1.849,1.849,0,0,0,.258.111l.228.108c.079.042.154.075.229.117a21.506,21.506,0,0,1,5.157,3.609,16.736,16.736,0,0,1,1.829-1.66,20.134,20.134,0,0,0-11.925-3.86c-.525,0-1.049.03-1.582.069" transform="translate(-6.198 -0.187)" fill="#7dcbec"/>
        <path id="Tracé_3582" data-name="Tracé 3582" d="M84.943,8.056a29.2,29.2,0,0,1,2.781,3c.851-.592,1.694-1.162,2.541-1.694a26.8,26.8,0,0,0-3.5-2.965,16.367,16.367,0,0,0-1.825,1.66" transform="translate(-7.264 -0.535)" fill="#5ec5ed"/>
        <path id="Tracé_3583" data-name="Tracé 3583" d="M72.014-6.294c.532-.045,1.057-.064,1.582-.064A20.156,20.156,0,0,1,85.521-2.5C89.179-5.387,93.6-6.4,99.743-6.4H70c.686,0,1.357.041,2.016.1" transform="translate(-6.014 8.362)" fill="url(#linear-gradient-16)"/>
        <path id="Tracé_3584" data-name="Tracé 3584" d="M101.159-9.63c-6.142,0-10.564,1.008-14.222,3.894A27.019,27.019,0,0,1,90.43-2.772,43.359,43.359,0,0,1,105.541-9.09a30.663,30.663,0,0,1,5.655-.54Z" transform="translate(-7.431 11.596)" fill="url(#linear-gradient-17)"/>
        <path id="Tracé_3585" data-name="Tracé 3585" d="M180.488,54.419c2.642-8.148,5.667-18.037,9.418-30.034C193.286,13.577,199.272,5.5,210.51,1.97c.3-.6.577-1.226.866-1.837-18.322,1.1-26.886,10.419-31.2,24.222-7.536,24.1-12.1,39.718-16.5,49.672a146.465,146.465,0,0,0,16.8-19.608" transform="translate(-13.848 -0.011)" fill="url(#linear-gradient-18)"/>
        <path id="Tracé_3586" data-name="Tracé 3586" d="M210.9,91.636h-2.077V98.09h-.847V91.636h-2.084v-.768H210.9v.768Z" transform="translate(-17.377 -7.598)"/>
        <path id="Tracé_3587" data-name="Tracé 3587" d="M219.961,98.088h-.843v-4.85c0-.382.029-.85.069-1.4h0a4.943,4.943,0,0,1-.225.7L216.5,98.088h-.412l-2.466-5.505a4.036,4.036,0,0,1-.222-.746h-.029c.029.291.039.761.039,1.413v4.838h-.81V90.867h1.117l2.215,5.041a6.548,6.548,0,0,1,.326.866h.032c.148-.4.268-.693.349-.888l2.26-5.018h1.064v7.222Z" transform="translate(-17.938 -7.597)"/>
      </g>
    </g>
    <g id="Groupe_13" data-name="Groupe 13" transform="translate(-209.519 -67.418)">
      <path id="Tracé_3551-2" data-name="Tracé 3551" d="M88.5,20.412c8.4,25.683,11.58,71.5,36.139,71.5h0a30.237,30.237,0,0,0,5.655-.544h0C107.969,86.161,105.323,40.844,91.7,17.376h0c-1.068.971-2.129,1.983-3.2,3.036" transform="translate(-7.561 -1.453)" fill="url(#linear-gradient)"/>
      <path id="Tracé_3552-2" data-name="Tracé 3552" d="M91.992,17.153c13.623,23.468,16.269,68.786,38.594,73.991h0a35.512,35.512,0,0,0,5.273-1.424h0C115.82,79.9,110.28,35.9,94.81,14.709h0q-1.405,1.17-2.818,2.444" transform="translate(-7.853 -1.23)" fill="url(#linear-gradient-2)"/>
      <path id="Tracé_3553-2" data-name="Tracé 3553" d="M111.516,2.145a30.337,30.337,0,0,0-5.659.544A43.329,43.329,0,0,0,90.751,9a37.5,37.5,0,0,1,3.957,4.655,54.258,54.258,0,0,1,15.441-9.377,34.4,34.4,0,0,1,5.76-1.6,17.743,17.743,0,0,0-4.392-.536" transform="translate(-7.75 -0.179)" fill="#14559a"/>
      <path id="Tracé_3554-2" data-name="Tracé 3554" d="M153.693,79.622q3.075-2.445,6.162-5.4c-8.533-25.563-11.588-72.035-36.319-72.035a29.282,29.282,0,0,0-5.333.495c22.528,5.6,25.413,54.615,35.491,76.94" transform="translate(-10.045 -0.183)" fill="url(#linear-gradient-3)"/>
      <path id="Tracé_3555-2" data-name="Tracé 3555" d="M117.8,2.68a17.761,17.761,0,0,0-4.392-.536l9.726.036a28.944,28.944,0,0,0-5.333.5" transform="translate(-9.644 -0.179)" fill="#3092c4"/>
      <path id="Tracé_3556-2" data-name="Tracé 3556" d="M155.072,92.338a36.641,36.641,0,0,1-2.789-3.013,51.152,51.152,0,0,1-12.424,6.633,19.142,19.142,0,0,0,4.632,1.578,19.636,19.636,0,0,0,3.946.39c4.621,0,8.275-.547,11.386-2.039a21.614,21.614,0,0,1-4.752-3.549" transform="translate(-11.856 -7.469)" fill="#1969bc"/>
      <path id="Tracé_3557-2" data-name="Tracé 3557" d="M111.917,4.334c20.177,10.553,21.931,58.344,38.031,77.75h0c1.079-.761,2.148-1.566,3.216-2.417h0C143.086,57.342,140.2,8.326,117.681,2.726h0a34.88,34.88,0,0,0-5.764,1.608" transform="translate(-9.519 -0.228)" fill="url(#linear-gradient-4)"/>
      <path id="Tracé_3558-2" data-name="Tracé 3558" d="M95.067,13.854c15.47,21.186,21.01,65.191,41.048,75.01h0a51.152,51.152,0,0,0,12.423-6.633h0c-16.1-19.406-17.854-67.2-38.031-77.75h0a54.145,54.145,0,0,0-15.441,9.373" transform="translate(-8.111 -0.375)" fill="url(#linear-gradient-5)"/>
      <path id="Tracé_3559-2" data-name="Tracé 3559" d="M76.978,19.444a230.671,230.671,0,0,0-7.9,22.1A164.358,164.358,0,0,1,86.875,20.063,64.513,64.513,0,0,0,84.248,13.2a88.685,88.685,0,0,0-7.271,6.24" transform="translate(-5.938 -1.104)" fill="url(#linear-gradient-6)"/>
      <path id="Tracé_3560-2" data-name="Tracé 3560" d="M87.783,11.479c-.712.51-1.428,1.031-2.147,1.582a64.614,64.614,0,0,1,2.623,6.858c1.072-1.049,2.136-2.065,3.2-3.036a42.489,42.489,0,0,0-3.676-5.4" transform="translate(-7.322 -0.96)" fill="#2b74b1"/>
      <path id="Tracé_3561-2" data-name="Tracé 3561" d="M90.519,9.629c-.847.536-1.69,1.1-2.541,1.694a42.7,42.7,0,0,1,3.68,5.408c.941-.851,1.881-1.671,2.818-2.447a37.5,37.5,0,0,0-3.958-4.655" transform="translate(-7.518 -0.805)" fill="#125a9e"/>
      <path id="Tracé_3562-2" data-name="Tracé 3562" d="M235.452.01C224.04,44.019,200.2,79.368,180.222,88.28h-.038c-.363.165-.723.315-1.079.461a.992.992,0,0,1-.132.051c-.1.042-.2.075-.307.117a.815.815,0,0,1-.138.057c-.169.06-.334.111-.5.177-.071.03-.138.048-.206.072a2.516,2.516,0,0,1-.247.081c-.075.03-.154.051-.24.084s-.147.042-.214.072c-.147.042-.28.078-.427.129a.806.806,0,0,0-.18.048c-.091.03-.192.051-.29.078a.876.876,0,0,1-.194.054c-.1.03-.214.057-.315.081-.135.03-.255.057-.382.084a8.138,8.138,0,0,0,2.86.5c18.948,0,38.053-33.958,69.666-90.428H235.447Z" transform="translate(-14.822 0)" fill="url(#linear-gradient-7)"/>
      <path id="Tracé_3563-2" data-name="Tracé 3563" d="M59.205,3.93c.012,0,.027-.03.034-.03a.039.039,0,0,0,.045-.03h.024c.1-.036.2-.078.307-.117a.056.056,0,0,0,.06-.03c.027,0,.053-.03.079-.033.112-.036.225-.078.33-.117H60.1c.251-.075.483-.168.727-.255.034,0,.068-.03.109-.03.1-.033.206-.069.311-.093a.612.612,0,0,1,.142-.045c.109-.033.214-.069.315-.093.045,0,.086-.03.12-.033.349-.1.693-.186,1.042-.27.049,0,.09-.03.142-.033a2,2,0,0,1,.3-.06.528.528,0,0,1,.15-.045c.1-.03.2-.033.307-.057h.071c.21-.042.424-.078.633-.117H64.6a2.669,2.669,0,0,1,.292-.051c.056,0,.112-.03.165-.03a2.16,2.16,0,0,0,.281-.042.3.3,0,0,0,.154-.03c.221-.03.45-.042.682-.06-.656-.063-1.33-.1-2.016-.1C42.822,2.125,13.421,41.719.177,93H2.729c4.239-7.559,8.046-14.709,11.528-21.422,9.276-36.319,28.168-61.087,44.95-67.65" transform="translate(-0.177 -0.178)" fill="url(#linear-gradient-8)"/>
      <path id="Tracé_3564-2" data-name="Tracé 3564" d="M77.7,19.139a88.626,88.626,0,0,1,7.271-6.24,34.344,34.344,0,0,0-1.732-3.347A41,41,0,0,0,77.7,19.139" transform="translate(-6.658 -0.799)" fill="#0d82ca"/>
      <path id="Tracé_3565-2" data-name="Tracé 3565" d="M79.587,4.409a18.2,18.2,0,0,1,3.785,4.7c.36-.442.723-.851,1.1-1.233a21.4,21.4,0,0,0-5.157-3.609,2.347,2.347,0,0,0,.228.108s.03.03.042.03" transform="translate(-6.794 -0.357)" fill="#0d82ca"/>
      <path id="Tracé_3566-2" data-name="Tracé 3566" d="M15.54,71.742C35,34.246,44.218,10.516,60.49,4.092h0c-16.778,6.566-35.674,31.335-44.95,67.65" transform="translate(-1.461 -0.342)" fill="url(#linear-gradient-9)"/>
      <path id="Tracé_3567-2" data-name="Tracé 3567" d="M84.842,8.208c-.378.386-.738.791-1.1,1.233a34.81,34.81,0,0,1,1.735,3.347c.72-.551,1.435-1.072,2.147-1.582a29.209,29.209,0,0,0-2.781-3" transform="translate(-7.163 -0.686)" fill="#127bca"/>
      <path id="Tracé_3568-2" data-name="Tracé 3568" d="M25.037,96.341h0a2.427,2.427,0,0,1-.352.042h-.068c-.1,0-.206.03-.3.03h-.049c-.243.029-.483.029-.716.048h-.075c19.694-.551,28.7-10.411,33.163-24.712,3.4-10.842,6.184-19.975,8.627-27.639A391.606,391.606,0,0,0,40.4,85.065C36.385,92.538,30.276,95.66,25.037,96.327" transform="translate(-2.125 -3.688)" fill="url(#linear-gradient-10)"/>
      <path id="Tracé_3569-2" data-name="Tracé 3569" d="M25.18,94.319h0c5.239-.667,11.348-3.786,15.366-11.262h0A393.28,393.28,0,0,1,65.407,42.1h0a230.116,230.116,0,0,1,7.9-22.1h0C56.881,35.641,40.391,61.639,25.18,94.311" transform="translate(-2.267 -1.673)" fill="url(#linear-gradient-11)"/>
      <path id="Tracé_3570-2" data-name="Tracé 3570" d="M14.487,77.916C11.006,84.628,7.2,91.779,2.96,99.337h7.424a181.461,181.461,0,0,1,4.1-21.418" transform="translate(-0.409 -6.515)" fill="#05a1e6"/>
      <path id="Tracé_3571-2" data-name="Tracé 3571" d="M66.406,2.324c-.06,0-.105.03-.157.03h0a1.289,1.289,0,0,1-.277.039h0a.327.327,0,0,0-.165.03h0a2.849,2.849,0,0,1-.292.051h0a.192.192,0,0,0-.127.03h0c-.214.036-.424.075-.633.111h-.071a2.487,2.487,0,0,1-.307.06h0a.525.525,0,0,1-.154.042h0a2.851,2.851,0,0,1-.3.06h0a.287.287,0,0,1-.142.033h0c-.348.084-.693.174-1.042.27h0c-.037,0-.075.03-.12.036h0c-.1.03-.206.06-.315.093h0a.434.434,0,0,1-.143.042h0c-.1.03-.21.06-.311.093h0c-.041,0-.075.03-.112.03h0c-.24.09-.476.18-.723.255h0c-.1.033-.217.075-.33.114h0a.7.7,0,0,1-.139.057h0c-.105.033-.21.075-.307.114h0a.515.515,0,0,1-.1.048h0c-16.272,6.424-25.492,30.154-44.95,67.65h0a180.64,180.64,0,0,0-4.1,21.418h1.042c2.934,0,3.763-.03,7.139-.03h3.272c.232-.029.472-.029.716-.049H23.3c.1,0,.2-.029.3-.029h.071c.108,0,.232-.029.352-.042h0c15.212-32.673,31.7-58.67,48.128-74.306h0a41.139,41.139,0,0,1,5.535-9.583h0A18.146,18.146,0,0,0,73.9,4.282h0s-.038,0-.041-.03h0c-.079-.033-.153-.072-.232-.111h0c-.079-.042-.146-.075-.228-.117h0a2.479,2.479,0,0,1-.225-.108h0a2.081,2.081,0,0,1-.262-.111h0c-.071-.03-.135-.06-.206-.09h0c-.146-.057-.292-.117-.431-.18h0c-.064-.03-.124-.045-.184-.069h0c-.1-.036-.217-.084-.322-.129h0A1.1,1.1,0,0,0,71.6,3.28h0c-.154-.051-.3-.1-.446-.153h-.037c-.172-.057-.341-.1-.517-.147h0a.219.219,0,0,0-.116-.036h0c-.154-.042-.289-.084-.435-.123h0c-.037,0-.071-.03-.1-.03h0c-.352-.093-.716-.168-1.083-.237h0c-.038,0-.075-.03-.112-.03h0c-.157-.03-.311-.057-.468-.075h0a.123.123,0,0,0-.094-.03h0c-.187-.03-.371-.051-.555-.072h-.1c-.15-.03-.288-.033-.427-.048h0c-.236.03-.461.042-.682.063" transform="translate(-1.088 -0.192)" fill="url(#linear-gradient-12)"/>
      <path id="Tracé_3572-2" data-name="Tracé 3572" d="M191.435,24.553c-3.743,11.993-6.776,21.887-9.414,30.027h0c10.273-14.136,20.391-31.919,30.027-52.441h0c-11.24,3.53-17.236,11.61-20.613,22.415" transform="translate(-15.381 -0.179)" fill="url(#linear-gradient-13)"/>
      <path id="Tracé_3573-2" data-name="Tracé 3573" d="M182.234,87.531c-.524.267-1.049.521-1.566.75C200.651,79.369,224.486,44.02,235.9.011h-2.313c-26.219,46.835-34.65,78.188-51.351,87.52" transform="translate(-15.268 -0.001)" fill="url(#linear-gradient-14)"/>
      <path id="Tracé_3574-2" data-name="Tracé 3574" d="M167.763,88.559c4.347-5.307,7.889-14.327,12.724-29.194A146.131,146.131,0,0,1,163.677,78.98c0,.03,0,.03-.029.048a51.155,51.155,0,0,0,4.1,9.53" transform="translate(-13.845 -4.964)" fill="#079ae1"/>
      <path id="Tracé_3575-2" data-name="Tracé 3575" d="M167.6,91.223a17.8,17.8,0,0,1-4.79,4.2c-.382.222-.768.431-1.161.622a16.84,16.84,0,0,0,6.1,1.922h0c.33.033.656.063,1,.087h.061a2.656,2.656,0,0,1,.479.03H170.9a.4.4,0,0,0,.183-.03,1.484,1.484,0,0,0,.359-.03h.178c.123,0,.258-.03.389-.042h.029c.039,0,.082-.03.12-.03.138-.03.282-.042.416-.063h.124c.152-.03.311-.048.468-.078h.074c.315-.06.622-.12.934-.2-2.579-.944-4.738-3.171-6.6-6.341" transform="translate(-13.677 -7.627)" fill="#1969bc"/>
      <path id="Tracé_3576-2" data-name="Tracé 3576" d="M127.936,98.532a29.961,29.961,0,0,0,5.656-.547,35.041,35.041,0,0,0,5.273-1.421,19.172,19.172,0,0,0,4.628,1.578,19.675,19.675,0,0,0,3.951.39Z" transform="translate(-10.859 -8.074)" fill="#1e5cb3"/>
      <path id="Tracé_3577-2" data-name="Tracé 3577" d="M149.222,98.525c4.618,0,8.275-.547,11.382-2.039a16.844,16.844,0,0,0,6.1,1.923h0c.33.033.656.063,1,.087h.06a2.664,2.664,0,0,1,.479.03H149.222Z" transform="translate(-12.637 -8.067)" fill="#1e5cb3"/>
      <path id="Tracé_3578-2" data-name="Tracé 3578" d="M170.6,98.666h1.069a.391.391,0,0,0,.183-.03,1.54,1.54,0,0,0,.364-.03h.177c.123,0,.257-.03.386-.042h.033c.039,0,.078-.03.117-.03.137-.03.281-.042.415-.063a.21.21,0,0,0,.129-.03c.153-.03.312-.045.469-.075h.074c.315-.06.622-.12.933-.2h0a8.147,8.147,0,0,0,2.86.5l-7.2.03Z" transform="translate(-14.426 -8.208)" fill="#1d60b5"/>
      <path id="Tracé_3579-2" data-name="Tracé 3579" d="M162.805,80.82v-.03q-3.086,2.951-6.161,5.4c-1.072.851-2.14,1.656-3.219,2.417a36.374,36.374,0,0,0,2.789,3.013,21.605,21.605,0,0,0,4.751,3.549c.39-.192.78-.4,1.158-.622a17.789,17.789,0,0,0,4.794-4.2,51.216,51.216,0,0,1-4.1-9.53" transform="translate(-12.99 -6.755)" fill="#175fab"/>
      <path id="Tracé_3580-2" data-name="Tracé 3580" d="M225.213.011H213.575c-.63.03-1.241.051-1.844.09h0c-.285.611-.577,1.222-.859,1.837h0c-9.635,20.522-19.754,38.305-30.026,52.441h0c-4.831,14.867-8.376,23.888-12.723,29.195h0c1.858,3.171,4.021,5.4,6.592,6.345h0a1.2,1.2,0,0,1,.2-.045h.042c.045,0,.093-.03.142-.03h0c.1-.03.217-.048.323-.081h0a1.6,1.6,0,0,1,.191-.054h0c.1-.03.2-.051.289-.075h0a.694.694,0,0,1,.18-.051h0c.15-.048.285-.084.428-.129h0a1.224,1.224,0,0,1,.214-.072h0c.082-.03.165-.051.24-.087h0c.086-.03.172-.045.247-.078h0c.067-.03.138-.048.2-.075h0c.169-.06.334-.111.5-.177h0c.046,0,.091-.042.139-.051h0c.1-.042.206-.075.307-.12h0a.384.384,0,0,1,.131-.048h0c.353-.147.716-.3,1.08-.461h.038c.518-.228,1.042-.484,1.563-.75h0c16.7-9.332,25.136-40.685,51.354-87.52H225.2Z" transform="translate(-14.219 -0.001)" fill="url(#linear-gradient-15)"/>
      <path id="Tracé_3581-2" data-name="Tracé 3581" d="M72.2,2.255a.181.181,0,0,1,.12.03.963.963,0,0,1,.3.033h.1c.184.03.367.045.555.072a.114.114,0,0,1,.094.03c.154.03.311.054.468.078.034,0,.079.03.116.03.36.072.727.147,1.079.24.033,0,.068.03.1.03.15.036.285.081.435.123.045,0,.079.03.12.036.176.045.341.09.513.147.007,0,.018,0,.038.03.146.045.3.1.45.153a.852.852,0,0,0,.172.057c.105.045.221.09.322.132a.655.655,0,0,1,.183.063c.138.063.285.12.427.18.075.03.139.063.21.09a1.849,1.849,0,0,0,.258.111l.228.108c.079.042.154.075.229.117a21.506,21.506,0,0,1,5.157,3.609,16.736,16.736,0,0,1,1.829-1.66,20.134,20.134,0,0,0-11.925-3.86c-.525,0-1.049.03-1.582.069" transform="translate(-6.198 -0.187)" fill="#7dcbec"/>
      <path id="Tracé_3582-2" data-name="Tracé 3582" d="M84.943,8.056a29.2,29.2,0,0,1,2.781,3c.851-.592,1.694-1.162,2.541-1.694a26.8,26.8,0,0,0-3.5-2.965,16.367,16.367,0,0,0-1.825,1.66" transform="translate(-7.264 -0.535)" fill="#5ec5ed"/>
      <path id="Tracé_3583-2" data-name="Tracé 3583" d="M72.014-6.294c.532-.045,1.057-.064,1.582-.064A20.156,20.156,0,0,1,85.521-2.5C89.179-5.387,93.6-6.4,99.743-6.4H70c.686,0,1.357.041,2.016.1" transform="translate(-6.014 8.362)" fill="url(#linear-gradient-16)"/>
      <path id="Tracé_3584-2" data-name="Tracé 3584" d="M101.159-9.63c-6.142,0-10.564,1.008-14.222,3.894A27.019,27.019,0,0,1,90.43-2.772,43.359,43.359,0,0,1,105.541-9.09a30.663,30.663,0,0,1,5.655-.54Z" transform="translate(-7.431 11.596)" fill="url(#linear-gradient-17)"/>
      <path id="Tracé_3585-2" data-name="Tracé 3585" d="M180.488,54.419c2.642-8.148,5.667-18.037,9.418-30.034C193.286,13.577,199.272,5.5,210.51,1.97c.3-.6.577-1.226.866-1.837-18.322,1.1-26.886,10.419-31.2,24.222-7.536,24.1-12.1,39.718-16.5,49.672a146.465,146.465,0,0,0,16.8-19.608" transform="translate(-13.848 -0.011)" fill="url(#linear-gradient-18)"/>
      <path id="Tracé_3586-2" data-name="Tracé 3586" d="M210.9,91.636h-2.077V98.09h-.847V91.636h-2.084v-.768H210.9v.768Z" transform="translate(-17.377 -7.598)"/>
      <path id="Tracé_3587-2" data-name="Tracé 3587" d="M219.961,98.088h-.843v-4.85c0-.382.029-.85.069-1.4h0a4.943,4.943,0,0,1-.225.7L216.5,98.088h-.412l-2.466-5.505a4.036,4.036,0,0,1-.222-.746h-.029c.029.291.039.761.039,1.413v4.838h-.81V90.867h1.117l2.215,5.041a6.548,6.548,0,0,1,.326.866h.032c.148-.4.268-.693.349-.888l2.26-5.018h1.064v7.222Z" transform="translate(-17.938 -7.597)"/>
    </g>
    <g id="Rectangle_6" data-name="Rectangle 6" transform="translate(20 20)" fill="#b11a1a" stroke="#000" stroke-width="8">
      <rect width="200" height="200" stroke="none"/>
      <rect x="4" y="4" width="192" height="192" fill="none"/>
    </g>
    <text id="SQL" transform="translate(126 150.5)" fill="#fff" font-size="80" font-family="CascadiaCode-Bold, Cascadia Code" font-weight="700"><tspan x="-70.313" y="0">SQL</tspan></text>
  </g>
</svg>
