<svg xmlns="http://www.w3.org/2000/svg" xmlns:xlink="http://www.w3.org/1999/xlink" width="240" height="240" viewBox="0 0 240 240">
  <defs>
    <clipPath id="clip-ts-logo">
      <rect width="240" height="240"/>
    </clipPath>
  </defs>
  <g id="ts-logo" clip-path="url(#clip-ts-logo)">
    <rect id="Rectangle_1" data-name="Rectangle 1" width="240" height="240" rx="9" fill="none"/>
    <g id="typescript" transform="translate(20.043 20.043)">
      <path id="Tracé_12" data-name="Tracé 12" d="M0,99.957V0H199.914V199.914H0" fill="#007acc"/>
      <path id="Tracé_13" data-name="Tracé 13" d="M87.7,191.485v8.256h26.338V274.7h18.69V199.741h26.338v-8.1c0-4.559,0-8.256-.2-8.357,0-.152-16.056-.2-35.556-.2l-35.455.152v8.307l-.152-.051Zm118.369-8.459a24.524,24.524,0,0,1,12.662,7.243c1.874,2.026,4.66,5.572,4.862,6.483,0,.3-8.762,6.23-14.081,9.522-.2.152-1.013-.709-1.823-2.026-2.634-3.748-5.318-5.369-9.522-5.673-6.078-.405-10.13,2.786-10.13,8.1a8,8,0,0,0,.912,3.849c1.368,2.786,3.9,4.457,11.751,7.9,14.486,6.23,20.766,10.333,24.565,16.208,4.305,6.585,5.268,16.917,2.381,24.667-3.242,8.459-11.143,14.182-22.438,16.056a63.183,63.183,0,0,1-15.448-.152c-8.1-1.52-15.853-5.572-20.615-10.788-1.874-2.026-5.47-7.446-5.268-7.8L165.8,255.4,173.4,251l5.723-3.343,1.317,1.773a27.562,27.562,0,0,0,7.6,7.395c6.584,3.394,15.4,2.938,19.753-1.013a7.59,7.59,0,0,0,2.684-6.078,7.816,7.816,0,0,0-1.52-5.166c-1.621-2.229-4.862-4.052-13.979-8.1-10.485-4.457-14.942-7.294-19.1-11.649a28.773,28.773,0,0,1-5.571-10.13c-.76-2.938-1.013-10.13-.3-13.017,2.178-10.13,9.826-17.221,20.766-19.247a49.092,49.092,0,0,1,15.4.507l-.1.1Z" transform="translate(-45.965 -92.516)" fill="#fff"/>
    </g>
  </g>
</svg>
