<svg xmlns="http://www.w3.org/2000/svg" xmlns:xlink="http://www.w3.org/1999/xlink" width="240" height="240" viewBox="0 0 240 240">
  <defs>
    <clipPath id="clip-xd-logo">
      <rect width="240" height="240"/>
    </clipPath>
  </defs>
  <g id="xd-logo" clip-path="url(#clip-xd-logo)">
    <rect id="Rectangle_1" data-name="Rectangle 1" width="240" height="240" rx="9" transform="translate(26 67)" fill="none"/>
    <g id="adobe-xd-1" transform="translate(19.143 21.665)">
      <path id="Tracé_3534" data-name="Tracé 3534" d="M165.994,196.67H35.719A35.688,35.688,0,0,1,0,160.951V35.719A35.688,35.688,0,0,1,35.719,0H165.994a35.688,35.688,0,0,1,35.719,35.719V160.951A35.688,35.688,0,0,1,165.994,196.67Z" transform="translate(0 0)" fill="#ff26be"/>
      <path id="Tracé_3535" data-name="Tracé 3535" d="M258.591,284.056H134.707A30.561,30.561,0,0,1,104.2,253.548V134.707A30.561,30.561,0,0,1,134.707,104.2h123.8a30.5,30.5,0,0,1,30.507,30.507V253.468a30.458,30.458,0,0,1-30.426,30.588Z" transform="translate(-95.793 -95.793)" fill="#2e001f"/>
      <path id="Tracé_3536" data-name="Tracé 3536" d="M508.792,637l23.536,45.216c.42.67.169,1.347-.508,1.347H517.191a1.648,1.648,0,0,1-1.767-1.089c-5.382-11.094-10.844-22.188-16.476-34.122h-.169c-5.043,11.264-10.594,23.116-15.968,34.211a1.622,1.622,0,0,1-1.517.928H467.441c-.839,0-.928-.67-.5-1.178l23.028-43.877L467.7,594.059a.679.679,0,0,1,.5-1.178h14.459c.839,0,1.178.169,1.509.928,5.293,11.094,10.675,22.527,15.717,33.7h.169c4.873-11.094,10.255-22.608,15.467-33.622.42-.67.67-1.089,1.517-1.089h13.531c.67,0,.928.508.508,1.178Zm27.659,13.7c0-19.582,13.031-34.88,33.7-34.88a37.038,37.038,0,0,1,4.373.169V593.72a.838.838,0,0,1,.839-.839h13.281c.67,0,.839.25.839.67V670.71a60.019,60.019,0,0,0,.42,8.238c0,.508-.169.67-.67.928a50.035,50.035,0,0,1-21.519,4.873c-18.243.073-31.274-11.183-31.266-34.049Zm38.067-21.511a12.633,12.633,0,0,0-4.873-.839c-10.594,0-17.985,8.149-17.985,21.688,0,15.467,7.568,21.688,17.065,21.688a15.757,15.757,0,0,0,5.8-.928V629.189Z" transform="translate(-429.035 -544.97)" fill="#ffd9f2"/>
    </g>
  </g>
</svg>
